<svg width="28" height="30" viewBox="0 0 28 30" fill="none" xmlns="http://www.w3.org/2000/svg">
<path d="M23.6259 28.3287C24.686 28.3287 25.5454 27.4361 25.5454 26.3351C25.5454 25.2341 24.686 24.3415 23.6259 24.3415C22.5658 24.3415 21.7064 25.2341 21.7064 26.3351C21.7064 27.4361 22.5658 28.3287 23.6259 28.3287Z" fill="black" stroke="white" stroke-width="2" stroke-linecap="round" stroke-linejoin="round"/>
<path d="M10.8293 28.3287C11.8894 28.3287 12.7488 27.4361 12.7488 26.3351C12.7488 25.2341 11.8894 24.3415 10.8293 24.3415C9.76917 24.3415 8.90979 25.2341 8.90979 26.3351C8.90979 27.4361 9.76917 28.3287 10.8293 28.3287Z" fill="black" stroke="white" stroke-width="2" stroke-linecap="round" stroke-linejoin="round"/>
<path d="M5.0708 4.40513H26.8251L24.2657 19.0251H7.63013L5.0708 4.40513ZM5.0708 4.40513C4.85752 3.51906 3.79114 1.74695 1.23181 1.74695" stroke="white" stroke-width="2" stroke-linecap="round" stroke-linejoin="round"/>
<path d="M24.2658 19.0251H7.63016H5.36614C3.08282 19.0251 1.87167 20.0634 1.87167 21.6833C1.87167 23.3032 3.08282 24.3415 5.36614 24.3415H23.6259" stroke="white" stroke-width="2" stroke-linecap="round" stroke-linejoin="round"/>
</svg>
